<?xml version="1.0" encoding="utf-8"?>
<!-- Generator: Adobe Illustrator 27.4.0, SVG Export Plug-In . SVG Version: 6.00 Build 0)  -->
<svg version="1.1" id="Layer_1" xmlns="http://www.w3.org/2000/svg" xmlns:xlink="http://www.w3.org/1999/xlink" x="0px" y="0px"
	 viewBox="0 0 77.5 95.5" style="enable-background:new 0 0 77.5 95.5;" xml:space="preserve">
<style type="text/css">
	.st0{fill:#3775BB;}
</style>
<path class="st0" d="M47.7,94.2H11.1c-4.7,0-8.7-3.2-9.8-7.7l4.9-1.2c0.6,2.3,2.6,3.9,4.9,3.9h36.6c13,0,23.5-10.6,23.5-23.5v-36
	c0-12.9-10.5-23.4-23.4-23.4H11.7c-2.8,0-5.1,2.3-5.1,5.1v55.2c0,2.8,2.3,5.1,5.1,5.1h36.9c2.8,0,5.1-2.3,5.1-5.1V28.8
	c0-2.8-2.3-5.1-5.1-5.1H23.8v30.6h-5V18.7h29.8c5.6,0,10.1,4.5,10.1,10.1v37.8c0,5.6-4.5,10.1-10.1,10.1H11.7
	c-5.6,0-10.1-4.5-10.1-10.1V11.4c0-5.6,4.5-10.1,10.1-10.1h36.1c15.6,0,28.4,12.7,28.4,28.4v36C76.2,81.4,63.4,94.2,47.7,94.2z"/>
</svg>
